# OBJ File Generated by UnrealEd

mtllib Nightstand.mtl
g SM_Nachttisch_32

v -15.3000 -23.0000 15.3000
v -15.3000 -22.7000 15.6000
v -15.6000 -22.7000 15.3000
v -15.3000 23.0000 15.3000
v -15.6000 22.7000 15.3000
v -15.3000 22.7000 15.6000
v 15.3000 22.7000 15.6000
v 15.6000 22.7000 15.3000
v 15.3000 23.0000 15.3000
v 15.6000 -22.7000 15.3000
v 15.3000 -22.7000 15.6000
v 15.3000 -23.0000 15.3000
v 15.6000 22.7000 -15.3000
v 15.3000 22.7000 -15.6000
v 15.3000 23.0000 -15.3000
v 15.3000 -22.7000 -15.6000
v 15.6000 -22.7000 -15.3000
v 15.3000 -23.0000 -15.3000
v -15.3000 22.7000 -15.6000
v -15.6000 22.7000 -15.3000
v -15.3000 23.0000 -15.3000
v -15.6000 -22.7000 -15.3000
v -15.3000 -22.7000 -15.6000
v -15.3000 -23.0000 -15.3000
v -15.3000 23.0000 -15.3000
v 15.3000 23.0000 15.3000
v 15.3000 23.0000 -15.3000
v -15.3000 23.0000 15.3000
v -15.3000 22.7000 15.6000
v 15.3000 -22.7000 15.6000
v 15.3000 22.7000 15.6000
v -15.3000 -22.7000 15.6000
v 15.6000 22.7000 15.3000
v 15.6000 -22.7000 -15.3000
v 15.6000 22.7000 -15.3000
v 15.6000 -22.7000 15.3000
v 15.3000 22.7000 -15.6000
v -15.3000 -22.7000 -15.6000
v -15.3000 22.7000 -15.6000
v 15.3000 -22.7000 -15.6000
v -15.6000 22.7000 -15.3000
v -15.6000 -22.7000 15.3000
v -15.6000 22.7000 15.3000
v -15.6000 -22.7000 -15.3000
v -15.6000 -22.7000 15.3000
v -15.3000 -23.0000 -15.3000
v -15.3000 -23.0000 15.3000
v -15.6000 -22.7000 -15.3000
v -15.3000 -22.7000 -15.6000
v 15.3000 -23.0000 -15.3000
v -15.3000 -23.0000 -15.3000
v 15.3000 -22.7000 -15.6000
v 15.6000 -22.7000 -15.3000
v 15.6000 -22.7000 15.3000
v 15.3000 -23.0000 15.3000
v 15.3000 -23.0000 -15.3000
v 15.3000 -22.7000 15.6000
v -15.3000 -22.7000 15.6000
v -15.3000 -23.0000 15.3000
v 15.3000 -23.0000 15.3000
v -15.3000 22.7000 15.6000
v 15.3000 23.0000 15.3000
v -15.3000 23.0000 15.3000
v 15.3000 22.7000 15.6000
v 15.6000 22.7000 15.3000
v 15.6000 22.7000 -15.3000
v 15.3000 23.0000 -15.3000
v 15.3000 23.0000 15.3000
v 15.3000 22.7000 -15.6000
v -15.3000 22.7000 -15.6000
v -15.3000 23.0000 -15.3000
v 15.3000 23.0000 -15.3000
v -15.6000 22.7000 -15.3000
v -15.3000 23.0000 15.3000
v -15.3000 23.0000 -15.3000
v -15.6000 22.7000 15.3000
v 15.6000 -22.7000 15.3000
v 15.6000 22.7000 15.3000
v 15.3000 22.7000 15.6000
v 15.3000 -22.7000 15.6000
v -15.6000 22.7000 15.3000
v -15.3000 -22.7000 15.6000
v -15.3000 22.7000 15.6000
v -15.6000 -22.7000 15.3000
v 15.3000 -22.7000 -15.6000
v 15.3000 22.7000 -15.6000
v 15.6000 22.7000 -15.3000
v 15.6000 -22.7000 -15.3000
v -15.6000 -22.7000 -15.3000
v -15.6000 22.7000 -15.3000
v -15.3000 22.7000 -15.6000
v -15.3000 -22.7000 -15.6000

vt 0.5005 0.6118
vt 0.4971 0.6138
vt 0.4971 0.6101
vt 0.0047 0.6125
vt 0.0077 0.6101
vt 0.0077 0.6135
vt 0.0001 0.4985
vt 0.0036 0.4985
vt 0.0019 0.5020
vt 0.0036 0.0088
vt 0.0000 0.0088
vt 0.0018 0.0054
vt 0.3330 0.4985
vt 0.3367 0.4985
vt 0.3347 0.5017
vt 0.3367 0.0088
vt 0.3330 0.0088
vt 0.3350 0.0054
vt 0.6665 0.4985
vt 0.6699 0.4985
vt 0.6680 0.5017
vt 0.6699 0.0088
vt 0.6665 0.0088
vt 0.6680 0.0054
vt 0.5449 0.9712
vt 0.9727 0.5430
vt 0.9727 0.9712
vt 0.5444 0.5432
vt 0.0077 0.6135
vt 0.4971 0.9434
vt 0.0077 0.9434
vt 0.4971 0.6138
vt 0.0036 0.4985
vt 0.3330 0.0088
vt 0.3330 0.4985
vt 0.0036 0.0088
vt 0.3367 0.4985
vt 0.6665 0.0088
vt 0.6665 0.4985
vt 0.3367 0.0088
vt 0.6699 0.4985
vt 0.9995 0.0088
vt 1.0000 0.4985
vt 0.6699 0.0088
vt 0.9995 0.0088
vt 0.6699 0.0054
vt 1.0000 0.0054
vt 0.6699 0.0088
vt 0.6665 0.0088
vt 0.3364 0.0054
vt 0.6665 0.0054
vt 0.3367 0.0088
vt 0.3330 0.0088
vt 0.0036 0.0088
vt 0.0034 0.0054
vt 0.3333 0.0054
vt 0.4971 0.9434
vt 0.4971 0.6138
vt 0.5000 0.6152
vt 0.5005 0.9434
vt 0.0077 0.6135
vt 0.0044 0.9424
vt 0.0047 0.6125
vt 0.0077 0.9434
vt 0.0036 0.4985
vt 0.3330 0.4985
vt 0.3330 0.5017
vt 0.0045 0.5020
vt 0.3367 0.4985
vt 0.6665 0.4985
vt 0.6660 0.5017
vt 0.3364 0.5015
vt 0.6699 0.4985
vt 0.9990 0.5015
vt 0.6699 0.5017
vt 1.0000 0.4985
vt 0.0036 0.0088
vt 0.0036 0.4985
vt 0.0001 0.4985
vt 0.0000 0.0088
vt 0.0077 0.6101
vt 0.4971 0.6138
vt 0.0077 0.6135
vt 0.4971 0.6101
vt 0.3367 0.0088
vt 0.3367 0.4985
vt 0.3330 0.4985
vt 0.3330 0.0088
vt 0.6699 0.0088
vt 0.6699 0.4985
vt 0.6665 0.4985
vt 0.6665 0.0088

vn -0.575 -0.575 0.575
vn -0.575 -0.575 0.575
vn -0.575 -0.575 0.575
vn -0.575 0.575 0.575
vn -0.575 0.575 0.575
vn -0.575 0.575 0.575
vn 0.575 0.575 0.575
vn 0.575 0.575 0.575
vn 0.575 0.575 0.575
vn 0.575 -0.575 0.575
vn 0.575 -0.575 0.575
vn 0.575 -0.575 0.575
vn 0.575 0.575 -0.575
vn 0.575 0.575 -0.575
vn 0.575 0.575 -0.575
vn 0.575 -0.575 -0.575
vn 0.575 -0.575 -0.575
vn 0.575 -0.575 -0.575
vn -0.575 0.575 -0.575
vn -0.575 0.575 -0.575
vn -0.575 0.575 -0.575
vn -0.575 -0.575 -0.575
vn -0.575 -0.575 -0.575
vn -0.575 -0.575 -0.575
vn 0.000 1.000 0.000
vn 0.000 1.000 0.000
vn 0.000 1.000 0.000
vn 0.000 1.000 0.000
vn 0.000 0.000 1.000
vn 0.000 0.000 1.000
vn 0.000 0.000 1.000
vn 0.000 0.000 1.000
vn 1.000 0.000 0.000
vn 1.000 0.000 0.000
vn 1.000 0.000 0.000
vn 1.000 0.000 0.000
vn 0.000 0.000 -1.000
vn 0.000 0.000 -1.000
vn 0.000 0.000 -1.000
vn 0.000 0.000 -1.000
vn -1.000 0.000 0.000
vn -1.000 0.000 0.000
vn -1.000 0.000 0.000
vn -1.000 0.000 0.000
vn -0.709 -0.709 0.000
vn -0.709 -0.709 0.000
vn -0.709 -0.709 0.000
vn -0.709 -0.709 0.000
vn 0.000 -0.709 -0.709
vn 0.000 -0.709 -0.709
vn 0.000 -0.709 -0.709
vn 0.000 -0.709 -0.709
vn 0.709 -0.709 0.000
vn 0.709 -0.709 0.000
vn 0.709 -0.709 0.000
vn 0.709 -0.709 0.000
vn 0.000 -0.709 0.709
vn 0.000 -0.709 0.709
vn 0.000 -0.709 0.709
vn 0.000 -0.709 0.709
vn 0.000 0.709 0.709
vn 0.000 0.709 0.709
vn 0.000 0.709 0.709
vn 0.000 0.709 0.709
vn 0.709 0.709 0.000
vn 0.709 0.709 0.000
vn 0.709 0.709 0.000
vn 0.709 0.709 0.000
vn 0.000 0.709 -0.709
vn 0.000 0.709 -0.709
vn 0.000 0.709 -0.709
vn 0.000 0.709 -0.709
vn -0.709 0.709 0.000
vn -0.709 0.709 0.000
vn -0.709 0.709 0.000
vn -0.709 0.709 0.000
vn 0.709 0.000 0.709
vn 0.709 0.000 0.709
vn 0.709 0.000 0.709
vn 0.709 0.000 0.709
vn -0.709 0.000 0.709
vn -0.709 0.000 0.709
vn -0.709 0.000 0.709
vn -0.709 0.000 0.709
vn 0.709 0.000 -0.709
vn 0.709 0.000 -0.709
vn 0.709 0.000 -0.709
vn 0.709 0.000 -0.709
vn -0.709 0.000 -0.709
vn -0.709 0.000 -0.709
vn -0.709 0.000 -0.709
vn -0.709 0.000 -0.709

usemtl M_Nightstand
f 50/50/50 49/49/49 52/52/52 
f 4/4/4 5/5/5 6/6/6 
f 7/7/7 8/8/8 9/9/9 
f 10/10/10 11/11/11 12/12/12 
f 13/13/13 14/14/14 15/15/15 
f 16/16/16 17/17/17 18/18/18 
f 19/19/19 20/20/20 21/21/21 
f 22/22/22 23/23/23 24/24/24 
f 25/25/25 26/26/26 27/27/27 
f 26/26/26 25/25/25 28/28/28 
f 29/29/29 30/30/30 31/31/31 
f 30/30/30 29/29/29 32/32/32 
f 33/33/33 34/34/34 35/35/35 
f 34/34/34 33/33/33 36/36/36 
f 37/37/37 38/38/38 39/39/39 
f 38/38/38 37/37/37 40/40/40 
f 41/41/41 42/42/42 43/43/43 
f 42/42/42 41/41/41 44/44/44 
f 45/45/45 46/46/46 47/47/47 
f 46/46/46 45/45/45 48/48/48 
f 49/49/49 50/50/50 51/51/51 
f 1/1/1 2/2/2 3/3/3 
f 53/53/53 54/54/54 55/55/55 
f 55/55/55 56/56/56 53/53/53 
f 57/57/57 58/58/58 59/59/59 
f 57/57/57 59/59/59 60/60/60 
f 61/61/61 62/62/62 63/63/63 
f 62/62/62 61/61/61 64/64/64 
f 65/65/65 66/66/66 67/67/67 
f 67/67/67 68/68/68 65/65/65 
f 69/69/69 70/70/70 71/71/71 
f 69/69/69 71/71/71 72/72/72 
f 73/73/73 74/74/74 75/75/75 
f 74/74/74 73/73/73 76/76/76 
f 77/77/77 78/78/78 79/79/79 
f 79/79/79 80/80/80 77/77/77 
f 81/81/81 82/82/82 83/83/83 
f 82/82/82 81/81/81 84/84/84 
f 85/85/85 86/86/86 87/87/87 
f 87/87/87 88/88/88 85/85/85 
f 89/89/89 90/90/90 91/91/91 
f 91/91/91 92/92/92 89/89/89 

# dElaernU yb detareneG eliF JBO
